<svg width="42" height="42" viewBox="0 0 42 42" fill="none" xmlns="http://www.w3.org/2000/svg">
<path fill-rule="evenodd" clip-rule="evenodd" d="M7 10.5V5.25H5.25V36.75H7V19.25H9.625V21H21.875V18.0836H24.5C24.9641 18.0836 25.4092 18.268 25.7374 18.5962C26.0656 18.9244 26.25 19.3695 26.25 19.8336V20.125H24.5V27.125H36.75V20.125H35V19.25C35 14.4174 31.0826 10.5 26.25 10.5H21.875V8.75H16.625V7H22.75C22.9821 7 23.2046 6.90781 23.3687 6.74372C23.5328 6.57962 23.625 6.35706 23.625 6.125C23.625 5.89294 23.5328 5.67038 23.3687 5.50628C23.2046 5.34219 22.9821 5.25 22.75 5.25H8.75C8.51794 5.25 8.29538 5.34219 8.13128 5.50628C7.96719 5.67038 7.875 5.89294 7.875 6.125C7.875 6.35706 7.96719 6.57962 8.13128 6.74372C8.29538 6.90781 8.51794 7 8.75 7H14.875V8.75H9.625V10.5H7ZM33.25 19.25C33.25 17.3935 32.5125 15.613 31.1997 14.3003C29.887 12.9875 28.1065 12.25 26.25 12.25H21.875V16.3336H24.5C25.4283 16.3336 26.3185 16.7024 26.9749 17.3588C27.6313 18.0151 28 18.9054 28 19.8336V20.125H33.25V19.25ZM35 21.875H26.25V25.375H35V21.875ZM20.125 10.5H11.375V19.25H20.125V10.5ZM9.625 17.5H7V12.25H9.625V17.5Z" fill="#006D77"/>
<path fill-rule="evenodd" clip-rule="evenodd" d="M31.0625 36.75C32.7539 36.75 34.125 35.3255 34.125 33.5685C34.125 30.7842 31.0625 28 31.0625 28C31.0625 28 28 30.7842 28 33.5685C28 35.3255 29.3711 36.75 31.0625 36.75ZM31.0625 35C31.7249 35 32.375 34.4225 32.375 33.5685C32.375 32.753 31.892 31.7424 31.1824 30.7746C31.1429 30.7209 31.103 30.6675 31.0625 30.6145C31.0222 30.667 30.982 30.7204 30.9426 30.7746C30.2339 31.7415 29.75 32.7521 29.75 33.5685C29.75 34.4225 30.4001 35 31.0625 35Z" fill="#006D77"/>
</svg>
