<svg width="35" height="35" viewBox="0 0 35 35" fill="none" xmlns="http://www.w3.org/2000/svg">
<path d="M33.7963 17.2214L18.3483 0.87235C18.2371 0.754316 18.105 0.660673 17.9595 0.59678C17.8141 0.532887 17.6582 0.5 17.5007 0.5C17.3432 0.5 17.1873 0.532887 17.0419 0.59678C16.8965 0.660673 16.7643 0.754316 16.6531 0.87235L1.20508 17.2214C0.755029 17.6981 0.5 18.3455 0.5 19.0208C0.5 20.4229 1.57637 21.5629 2.90028 21.5629H4.52796V33.2289C4.52796 33.932 5.06427 34.5 5.7281 34.5H15.1004V25.6025H19.3009V34.5H29.2733C29.9371 34.5 30.4734 33.932 30.4734 33.2289V21.5629H32.1011C32.7387 21.5629 33.35 21.2968 33.8001 20.8162C34.7339 19.8232 34.7339 18.2145 33.7963 17.2214Z" fill="#006D77"/>
</svg>
