<svg width="23" height="33" viewBox="0 0 23 33" fill="none" xmlns="http://www.w3.org/2000/svg">
<path fill-rule="evenodd" clip-rule="evenodd" d="M20.7481 11.3112H14.9888L18.7102 2.62798C18.8331 2.34125 18.883 2.0285 18.8553 1.71776C18.8275 1.40703 18.7232 1.10803 18.5514 0.847574C18.3797 0.587115 18.1461 0.37334 17.8714 0.225414C17.5968 0.0774874 17.2897 3.51984e-05 16.9777 7.45944e-07H7.55168C7.18248 -0.000327619 6.8213 0.10776 6.51298 0.310852C6.20466 0.513944 5.96275 0.803098 5.81729 1.14244L0.16167 14.3389C0.0386925 14.6258 -0.0111317 14.9387 0.0166687 15.2496C0.0444691 15.5604 0.149024 15.8596 0.32095 16.1201C0.492877 16.3806 0.726794 16.5943 1.00171 16.7421C1.27662 16.8899 1.58393 16.9671 1.89606 16.9669H5.16501L0.146588 29.4601C-0.607494 31.3359 1.72073 32.9214 3.18931 31.5338L12.6606 22.5942L21.9735 14.6292C23.3045 13.4905 22.5014 11.3112 20.7481 11.3112ZM10.3983 12.4537C10.2755 12.7403 10.2256 13.0528 10.2533 13.3634C10.2809 13.674 10.3851 13.9729 10.5566 14.2333C10.7281 14.4937 10.9615 14.7075 11.2359 14.8556C11.5103 15.0036 11.8172 15.0813 12.129 15.0816H15.643L10.1382 19.7909L6.84284 22.9015L9.7027 15.7848C9.81766 15.4989 9.86076 15.189 9.82821 14.8825C9.79565 14.576 9.68845 14.2822 9.51597 14.0268C9.3435 13.7713 9.11103 13.562 8.83891 13.4173C8.56679 13.2725 8.26333 13.1967 7.95511 13.1964H4.75592L8.79403 3.77041H14.1178L10.3983 12.4537Z" fill="#006D77"/>
</svg>
