<svg width="32" height="32" viewBox="0 0 32 32" fill="none" xmlns="http://www.w3.org/2000/svg">
<path d="M6.22224 5.33332H20.4445V14.0444H22.2222V5.33332C22.2222 4.86182 22.0349 4.40964 21.7015 4.07624C21.3681 3.74284 20.916 3.55554 20.4445 3.55554H6.22224C5.75074 3.55554 5.29855 3.74284 4.96516 4.07624C4.63176 4.40964 4.44446 4.86182 4.44446 5.33332V26.6667C4.44446 27.1381 4.63176 27.5903 4.96516 27.9237C5.29855 28.2571 5.75074 28.4444 6.22224 28.4444H20.4445C20.916 28.4444 21.3681 28.2571 21.7015 27.9237C22.0349 27.5903 22.2222 27.1381 22.2222 26.6667H6.22224V5.33332Z" fill="#006D77"/>
<path d="M25.0311 15.36C24.861 15.2144 24.6423 15.1383 24.4186 15.1469C24.1949 15.1555 23.9826 15.2483 23.8243 15.4066C23.666 15.5649 23.5733 15.7771 23.5647 16.0008C23.556 16.2245 23.6321 16.4433 23.7777 16.6133L26.7822 19.5555H13.8933C13.6575 19.5555 13.4314 19.6492 13.2647 19.8159C13.098 19.9826 13.0044 20.2087 13.0044 20.4444C13.0044 20.6802 13.098 20.9063 13.2647 21.073C13.4314 21.2397 13.6575 21.3333 13.8933 21.3333H26.7822L23.7777 24.4089C23.6847 24.4886 23.6091 24.5866 23.5557 24.6969C23.5024 24.8072 23.4724 24.9273 23.4677 25.0497C23.463 25.1721 23.4836 25.2942 23.5283 25.4083C23.573 25.5223 23.6407 25.6259 23.7274 25.7126C23.814 25.7992 23.9176 25.867 24.0317 25.9117C24.1457 25.9563 24.2678 25.977 24.3902 25.9722C24.5126 25.9675 24.6328 25.9375 24.743 25.8842C24.8533 25.8308 24.9514 25.7553 25.0311 25.6622L30.2222 20.5066L25.0311 15.36Z" fill="#006D77"/>
</svg>
