<svg width="30" height="30" viewBox="0 0 30 30" fill="none" xmlns="http://www.w3.org/2000/svg">
<path d="M25 6.25C25.3315 6.25 25.6495 6.3817 25.8839 6.61612C26.1183 6.85054 26.25 7.16848 26.25 7.5V23.75C26.25 24.0815 26.1183 24.3995 25.8839 24.6339C25.6495 24.8683 25.3315 25 25 25C24.6685 25 24.3505 24.8683 24.1161 24.6339C23.8817 24.3995 23.75 24.0815 23.75 23.75V7.5C23.75 7.16848 23.8817 6.85054 24.1161 6.61612C24.3505 6.3817 24.6685 6.25 25 6.25ZM20 10C20.69 10 21.25 10.5575 21.25 11.2437V23.7562C21.25 24.4437 20.69 25 20 25C19.31 25 18.75 24.4425 18.75 23.7562V11.2437C18.75 10.5562 19.31 10 20 10ZM15 13.75C15.3315 13.75 15.6495 13.8817 15.8839 14.1161C16.1183 14.3505 16.25 14.6685 16.25 15V23.75C16.25 24.0815 16.1183 24.3995 15.8839 24.6339C15.6495 24.8683 15.3315 25 15 25C14.6685 25 14.3505 24.8683 14.1161 24.6339C13.8817 24.3995 13.75 24.0815 13.75 23.75V15C13.75 14.6685 13.8817 14.3505 14.1161 14.1161C14.3505 13.8817 14.6685 13.75 15 13.75ZM10 17.5C10.69 17.5 11.25 18.0563 11.25 18.7425V23.7575C11.25 24.4438 10.69 25 10 25C9.31 25 8.75 24.4438 8.75 23.7575V18.7425C8.75 18.0563 9.31 17.5 10 17.5ZM5 21.25C5.69 21.25 6.25 21.8 6.25 22.48V23.77C6.24869 23.9328 6.21532 24.0938 6.15179 24.2438C6.08827 24.3937 5.99583 24.5297 5.87975 24.6439C5.76368 24.7581 5.62624 24.8483 5.47529 24.9094C5.32435 24.9705 5.16284 25.0013 5 25C4.31 25 3.75 24.45 3.75 23.77V22.48C3.75131 22.3172 3.78468 22.1562 3.84821 22.0062C3.91173 21.8563 4.00417 21.7203 4.12025 21.6061C4.23632 21.4919 4.37376 21.4017 4.52471 21.3406C4.67565 21.2795 4.83716 21.2487 5 21.25Z" fill="#006D77"/>
</svg>
