<svg width="32" height="32" viewBox="0 0 32 32" fill="none" xmlns="http://www.w3.org/2000/svg">
<path d="M18.963 2C17.7083 1.99971 16.4709 2.29336 15.3501 2.85742C14.2293 3.42148 13.2562 4.24025 12.5087 5.24814C11.7613 6.25603 11.2603 7.425 11.046 8.66137C10.8316 9.89775 10.9098 11.1672 11.2743 12.3679L2 21.6429V27H7.35674L16.6311 17.725C17.7362 18.0605 18.9008 18.1538 20.0453 17.9985C21.1897 17.8432 22.2873 17.4429 23.2631 16.825C24.239 16.2072 25.0702 15.3861 25.7 14.4179C26.3299 13.4498 26.7436 12.3571 26.9131 11.2146C27.0825 10.072 27.0037 8.90634 26.6819 7.797C26.3601 6.68767 25.803 5.66074 25.0485 4.78622C24.2939 3.91169 23.3598 3.21011 22.3096 2.7293C21.2595 2.24848 20.118 1.99973 18.963 2ZM18.963 16.2857C18.3483 16.2854 17.7371 16.1945 17.1489 16.0161L16.1248 15.7054L15.3686 16.4616L12.5287 19.3018L11.2975 18.0714L10.0351 19.3339L11.2663 20.5652L9.85031 21.9812L8.61915 20.75L7.35674 22.0125L8.5879 23.2437L6.61751 25.2143H3.78558V22.3821L12.5367 13.6304L13.2938 12.8741L12.9831 11.85C12.6015 10.592 12.6263 9.24561 13.054 8.00247C13.4816 6.75933 14.2903 5.6827 15.3651 4.92574C16.4399 4.16877 17.726 3.77001 19.0404 3.78619C20.3549 3.80236 21.6308 4.23264 22.6866 5.01582C23.7424 5.799 24.5244 6.8952 24.9214 8.14848C25.3183 9.40177 25.31 10.7483 24.8975 11.9966C24.4851 13.2449 23.6896 14.3313 22.6241 15.1013C21.5587 15.8714 20.2776 16.2858 18.963 16.2857Z" fill="#006D77"/>
<path d="M22 12C23.1046 12 24 11.1046 24 10C24 8.89543 23.1046 8 22 8C20.8954 8 20 8.89543 20 10C20 11.1046 20.8954 12 22 12Z" fill="#006D77"/>
</svg>
