<svg width="35" height="35" viewBox="0 0 35 35" fill="none" xmlns="http://www.w3.org/2000/svg">
<path fill-rule="evenodd" clip-rule="evenodd" d="M23.6818 12.8636C23.6818 14.5031 23.0305 16.0755 21.8711 17.2348C20.7118 18.3941 19.1395 19.0454 17.4999 19.0454C15.8604 19.0454 14.288 18.3941 13.1287 17.2348C11.9694 16.0755 11.3181 14.5031 11.3181 12.8636C11.3181 11.2241 11.9694 9.65169 13.1287 8.49238C14.288 7.33306 15.8604 6.68176 17.4999 6.68176C19.1395 6.68176 20.7118 7.33306 21.8711 8.49238C23.0305 9.65169 23.6818 11.2241 23.6818 12.8636V12.8636ZM20.5908 12.8636C20.5908 13.6833 20.2652 14.4695 19.6855 15.0492C19.1059 15.6288 18.3197 15.9545 17.4999 15.9545C16.6802 15.9545 15.894 15.6288 15.3143 15.0492C14.7347 14.4695 14.409 13.6833 14.409 12.8636C14.409 12.0438 14.7347 11.2576 15.3143 10.678C15.894 10.0983 16.6802 9.77267 17.4999 9.77267C18.3197 9.77267 19.1059 10.0983 19.6855 10.678C20.2652 11.2576 20.5908 12.0438 20.5908 12.8636V12.8636Z" fill="#006D77"/>
<path fill-rule="evenodd" clip-rule="evenodd" d="M17.5 0.5C8.11136 0.5 0.5 8.11136 0.5 17.5C0.5 26.8886 8.11136 34.5 17.5 34.5C26.8886 34.5 34.5 26.8886 34.5 17.5C34.5 8.11136 26.8886 0.5 17.5 0.5ZM3.59091 17.5C3.59091 20.73 4.69282 23.7035 6.53964 26.0649C7.83663 24.3617 9.50985 22.9813 11.4286 22.0318C13.3473 21.0822 15.4596 20.5891 17.6005 20.5909C19.7136 20.5889 21.7993 21.0693 23.6987 21.9954C25.5981 22.9215 27.261 24.269 28.5608 25.9351C29.8999 24.1788 30.8015 22.129 31.191 19.9551C31.5806 17.7812 31.4468 15.5458 30.8009 13.4339C30.155 11.3219 29.0155 9.39416 27.4767 7.81006C25.9378 6.22595 24.0438 5.03106 21.9515 4.32424C19.8592 3.61743 17.6286 3.41901 15.4443 3.74541C13.2601 4.07181 11.1849 4.91365 9.39064 6.20126C7.59634 7.48888 6.13443 9.18525 5.1259 11.15C4.11736 13.1148 3.59119 15.2915 3.59091 17.5V17.5ZM17.5 31.4091C14.307 31.4139 11.2104 30.3154 8.73418 28.2996C9.73089 26.8728 11.0575 25.7078 12.6012 24.9038C14.1449 24.0998 15.8599 23.6806 17.6005 23.6818C19.3192 23.6804 21.0136 24.0892 22.5427 24.874C24.0718 25.6589 25.3917 26.7972 26.3925 28.1945C23.8971 30.2758 20.7494 31.4136 17.5 31.4091V31.4091Z" fill="#006D77"/>
</svg>
