<svg width="37" height="37" viewBox="0 0 37 37" fill="none" xmlns="http://www.w3.org/2000/svg">
<path d="M23.9498 4.32901C22.7843 3.16351 20.7555 3.16351 19.59 4.32901L4.329 19.59C3.75134 20.1684 3.42688 20.9524 3.42688 21.7699C3.42688 22.5874 3.75134 23.3714 4.329 23.9498L13.0502 32.671C13.633 33.2538 14.4069 33.5744 15.2301 33.5744C16.0534 33.5744 16.8273 33.2538 17.41 32.671L32.671 17.4101C33.2537 16.8273 33.5744 16.0534 33.5744 15.2301C33.5744 14.4069 33.2537 13.633 32.671 13.0502L23.9498 4.32901ZM15.2301 30.4911V32.0328V30.4911L6.50892 21.7699L21.7699 6.50893L30.4911 15.2301L15.2301 30.4911Z" fill="#006D77"/>
<path d="M13.875 24.6667C14.7264 24.6667 15.4167 23.9764 15.4167 23.125C15.4167 22.2736 14.7264 21.5833 13.875 21.5833C13.0236 21.5833 12.3333 22.2736 12.3333 23.125C12.3333 23.9764 13.0236 24.6667 13.875 24.6667Z" fill="#006D77"/>
<path d="M24.2149 33.465L22.035 31.2851L31.285 22.0351L33.465 24.2165L24.2149 33.465ZM12.785 3.53506L14.9649 5.71497L5.71495 14.965L3.53503 12.7835L12.785 3.53506Z" fill="#006D77"/>
</svg>
