<svg width="36" height="35" viewBox="0 0 36 35" fill="none" xmlns="http://www.w3.org/2000/svg">
<path fill-rule="evenodd" clip-rule="evenodd" d="M4.49015 6.68111L1.90616 4.09711C1.83185 4.02262 1.73711 3.97187 1.63393 3.95129C1.53076 3.93072 1.42379 3.94124 1.3266 3.98153C1.22941 4.02181 1.14637 4.09005 1.08801 4.17759C1.02965 4.26513 0.998592 4.36802 0.99878 4.47323V12.221C0.99878 12.5142 1.23678 12.7522 1.53003 12.7522H9.27778C9.38299 12.7524 9.48589 12.7214 9.57342 12.663C9.66096 12.6046 9.7292 12.5216 9.76949 12.4244C9.80978 12.3272 9.8203 12.2203 9.79972 12.1171C9.77914 12.0139 9.72839 11.9192 9.6539 11.8449L6.76816 8.95911C8.64928 6.33186 11.392 4.44727 14.519 3.63323C17.646 2.8192 20.9595 3.12725 23.8829 4.50378C26.8063 5.88032 29.1546 8.23821 30.5191 11.1672C31.8837 14.0962 32.1782 17.4109 31.3514 20.5346C30.5246 23.6583 28.6288 26.3932 25.9938 28.2636C23.3589 30.1339 20.1517 31.0213 16.9301 30.7713C13.7085 30.5213 10.6765 29.1498 8.36169 26.8953C6.04686 24.6409 4.59568 21.6462 4.26065 18.4324C4.21726 18.0116 4.00851 17.6254 3.68033 17.3586C3.35216 17.0918 2.93143 16.9663 2.51072 17.0097C2.09 17.0531 1.70376 17.2618 1.43695 17.59C1.17014 17.9182 1.04463 18.3389 1.08803 18.7596C1.49685 22.6935 3.26435 26.3618 6.08625 29.133C8.90815 31.9042 12.6079 33.6049 16.5485 33.9423C20.4892 34.2797 24.4242 33.2328 27.6761 30.9817C30.9281 28.7306 33.2935 25.4162 34.3652 21.6091C35.4368 17.802 35.1477 13.7403 33.5476 10.1234C31.9474 6.50649 29.1364 3.56058 25.5983 1.79282C22.0603 0.0250673 18.0167 -0.453929 14.1636 0.438296C10.3105 1.33052 6.88893 3.53814 4.48803 6.68111H4.49015ZM17.4675 8.50223C17.8902 8.50223 18.2956 8.67015 18.5945 8.96903C18.8934 9.26792 19.0613 9.67329 19.0613 10.096V16.454L23.3708 18.1795C23.7505 18.345 24.0509 18.652 24.2083 19.0352C24.3656 19.4185 24.3675 19.8479 24.2136 20.2325C24.0597 20.6172 23.762 20.9268 23.3838 21.0957C23.0055 21.2646 22.5763 21.2796 22.1872 21.1375L16.8747 19.0125C16.5792 18.8941 16.326 18.6899 16.1476 18.4263C15.9692 18.1627 15.8739 17.8518 15.8738 17.5335V10.096C15.8738 9.67329 16.0417 9.26792 16.3406 8.96903C16.6395 8.67015 17.0448 8.50223 17.4675 8.50223Z" fill="#006D77"/>
</svg>
