<svg width="400" height="400" viewBox="0 0 400 400" fill="none" xmlns="http://www.w3.org/2000/svg">
<path d="M0 52C0 23.2812 23.2812 0 52 0H348C376.719 0 400 23.2812 400 52V348C400 376.719 376.719 400 348 400H52C23.2812 400 0 376.719 0 348V52Z" fill="#83C5BE"/>
<path d="M138.625 147C135.708 146.167 132.688 144.917 129.562 143.25C126.646 141.375 123.938 139.292 121.438 137C119.146 134.5 117.375 131.792 116.125 128.875C114.875 125.958 114.562 122.833 115.188 119.5C116.438 112.625 120.396 106.167 127.062 100.125C133.729 94.0833 142.688 89.2917 153.938 85.75V84.8125C154.146 82.5208 155.604 80.2292 158.312 77.9375C161.229 75.4375 164.771 73.7708 168.938 72.9375C172.896 72.1042 175.708 72.1042 177.375 72.9375C179.25 73.7708 180.188 74.9167 180.188 76.375C180.188 76.7917 180.083 77.3125 179.875 77.9375C179.875 78.3542 179.875 78.7708 179.875 79.1875V80.75C190.083 79.9167 201.438 80.2292 213.938 81.6875C228.938 83.5625 241.125 87.1042 250.5 92.3125C259.875 97.5208 266.958 103.562 271.75 110.438C276.542 117.104 279.458 124.083 280.5 131.375C281.75 138.667 281.75 145.333 280.5 151.375C279.25 158.458 276.958 164.917 273.625 170.75C270.292 176.375 266.333 181.479 261.75 186.062C257.167 190.438 252.062 194.292 246.438 197.625C240.812 200.958 234.875 203.771 228.625 206.062C235.292 207.521 240.917 209.917 245.5 213.25C250.292 216.375 254.146 220.125 257.062 224.5C259.979 228.875 262.062 233.771 263.312 239.188C264.562 244.604 264.979 250.125 264.562 255.75C264.146 264.5 261.854 272.729 257.688 280.438C253.729 287.938 248.312 294.5 241.438 300.125C234.562 305.75 226.333 310.125 216.75 313.25C207.375 316.375 196.958 317.729 185.5 317.312H181.75C178.625 320.021 175.188 322 171.438 323.25C167.896 324.708 164.458 325.75 161.125 326.375C157.375 327.208 153.625 327.521 149.875 327.312C149.875 325.854 149.875 324.292 149.875 322.625C150.083 321.167 150.188 319.708 150.188 318.25C150.188 316.583 150.292 314.917 150.5 313.25C148 312.833 145.604 312.208 143.312 311.375C141.229 310.75 139.042 310.021 136.75 309.188C134.667 308.562 132.792 307.833 131.125 307C130.292 305.75 129.667 304.188 129.25 302.312C128.833 300.646 128.521 298.771 128.312 296.688C128.312 294.812 128.729 292.625 129.562 290.125C136.021 292.625 143.417 294.5 151.75 295.75C152.167 285.125 152.479 272.521 152.688 257.938C153.104 243.354 153.312 228.042 153.312 212C153.312 193.875 153.312 176.062 153.312 158.562C153.521 141.062 153.625 126.062 153.625 113.562C147.583 116.688 142.896 120.958 139.562 126.375C136.229 131.792 135.917 138.667 138.625 147ZM234.875 257.312C235.708 248.146 234.354 240.854 230.812 235.438C227.271 229.812 222.583 225.646 216.75 222.938C211.125 220.021 204.875 218.25 198 217.625C191.333 217 185.292 216.896 179.875 217.312C180.292 234.604 180.604 250.333 180.812 264.5C181.021 278.458 181.229 289.917 181.438 298.875C187.896 299.083 194.146 298.354 200.188 296.688C206.229 295.021 211.646 292.417 216.438 288.875C221.438 285.333 225.604 280.958 228.938 275.75C232.271 270.333 234.25 264.188 234.875 257.312ZM179.25 106.375C178.833 117 178.625 129.604 178.625 144.188C178.625 158.771 178.833 175.021 179.25 192.938C179.25 194.604 179.25 196.271 179.25 197.938C179.25 199.396 179.354 200.958 179.562 202.625C187.062 202 194.875 200.229 203 197.312C211.125 194.188 218.521 190.125 225.188 185.125C232.062 180.125 237.688 174.292 242.062 167.625C246.438 160.75 248.625 153.25 248.625 145.125C248.625 138.875 246.958 133.354 243.625 128.562C240.292 123.562 235.812 119.396 230.188 116.062C224.771 112.729 218.417 110.229 211.125 108.562C204.042 106.896 196.646 106.062 188.938 106.062C187.271 106.062 185.604 106.062 183.938 106.062C182.479 106.062 180.917 106.167 179.25 106.375Z" fill="#EDF6F9"/>
</svg>
